<svg xmlns="http://www.w3.org/2000/svg" viewBox="0 0 640 720" width="640" height="720" role="img" font-family="'DM Sans','Helvetica Neue',Helvetica,Arial,sans-serif"><title>Red flags that mean go to the ER</title><defs>
<linearGradient id="rfen" x1="0" y1="0" x2="1" y2="1"><stop offset="0" stop-color="#FFFFFF"/><stop offset="1" stop-color="#DCE4F0"/></linearGradient>
<linearGradient id="rfde" gradientUnits="userSpaceOnUse" x1="0" y1="20" x2="0" y2="340"><stop offset="0" stop-color="#F5EAD3"/><stop offset="1" stop-color="#E6D3AE"/></linearGradient>
<linearGradient id="rfpu" gradientUnits="userSpaceOnUse" x1="0" y1="80" x2="0" y2="330"><stop offset="0" stop-color="#F7B9B1"/><stop offset="1" stop-color="#EE958B"/></linearGradient>
<linearGradient id="rfpd" gradientUnits="userSpaceOnUse" x1="0" y1="80" x2="0" y2="330"><stop offset="0" stop-color="#B9ADA2"/><stop offset="1" stop-color="#8F8379"/></linearGradient>
<linearGradient id="rfpi" gradientUnits="userSpaceOnUse" x1="0" y1="80" x2="0" y2="330"><stop offset="0" stop-color="#F59A8F"/><stop offset="1" stop-color="#E06F63"/></linearGradient>
<linearGradient id="rfgu" x1="0" y1="0" x2="0" y2="1"><stop offset="0" stop-color="#F4B3B0"/><stop offset="1" stop-color="#E59591"/></linearGradient>
<linearGradient id="rfbo" x1="0" y1="0" x2="0" y2="1"><stop offset="0" stop-color="#F1E9DC"/><stop offset="1" stop-color="#E4D8C4"/></linearGradient>
<radialGradient id="rfps" cx=".4" cy=".35" r=".7"><stop offset="0" stop-color="#FFF6DA"/><stop offset="1" stop-color="#F1CF7A"/></radialGradient>
<linearGradient id="rfbl" x1="0" y1="0" x2="1" y2="1"><stop offset="0" stop-color="#3B82F6"/><stop offset="1" stop-color="#1D4ED8"/></linearGradient>
<linearGradient id="rfrd" x1="0" y1="0" x2="1" y2="1"><stop offset="0" stop-color="#C8321F"/><stop offset="1" stop-color="#8F1C12"/></linearGradient>
<pattern id="rfdots" width="18" height="18" patternUnits="userSpaceOnUse"><circle cx="5" cy="5" r="2.4" fill="#D8C9B0"/><circle cx="14" cy="13" r="1.8" fill="#D8C9B0"/></pattern>
<filter id="rfsh" x="-20%" y="-20%" width="140%" height="150%"><feDropShadow dx="0" dy="8" stdDeviation="9" flood-color="#1A1A2E" flood-opacity=".16"/></filter>
<filter id="rfsm" x="-20%" y="-20%" width="140%" height="160%"><feDropShadow dx="0" dy="4" stdDeviation="5" flood-color="#1A1A2E" flood-opacity=".14"/></filter>
</defs><rect x="8" y="8" width="624" height="704" rx="26" fill="#FFFFFF" stroke="#B42318" stroke-width="3"/><path d="M8 34 Q8 8 34 8 H606 Q632 8 632 34 V104 H8 Z" fill="url(#rfrd)"/><g transform="translate(34 26)"><path d="M28 0 L56 50 L0 50 Z" fill="#fff"/><rect x="25" y="15" width="6" height="20" rx="3" fill="#B42318"/><circle cx="28" cy="42" r="3.5" fill="#B42318"/></g><text x="108" y="54" font-size="28" font-weight="800" fill="#FFFFFF" text-anchor="start">Go to the ER or call 911</text><text x="108" y="84" font-size="18" font-weight="600" fill="#FFE4E0" text-anchor="start">Do not text first. Go.</text><rect x="28" y="126" width="286" height="178" rx="20" fill="#FFF1F0" stroke="rgba(180,35,24,.25)" stroke-width="1.5"/><g transform="translate(131 142)"><path d="M40 10 V40" stroke="#1A1A2E" stroke-width="6" stroke-linecap="round"/><path d="M40 38 C26 38 14 52 14 74 C14 86 28 88 36 80 L38 46" fill="#E3ECFB" stroke="#1A1A2E" stroke-width="4" stroke-linejoin="round"/><path d="M40 38 C54 38 66 52 66 74 C66 86 52 88 44 80 L42 46" fill="#E3ECFB" stroke="#1A1A2E" stroke-width="4" stroke-linejoin="round"/><path d="M30 20 L50 20" stroke="#B42318" stroke-width="5" stroke-linecap="round"/></g><text x="171" y="276" font-size="20" font-weight="800" fill="#7A271A" text-anchor="middle">Trouble breathing</text><rect x="326" y="126" width="286" height="178" rx="20" fill="#FFF1F0" stroke="rgba(180,35,24,.25)" stroke-width="1.5"/><g transform="translate(429 142)"><path d="M24 8 C24 40 20 60 28 90 M56 8 C56 40 60 60 52 90" stroke="#1A1A2E" stroke-width="4" fill="none" stroke-linecap="round"/><path d="M30 46 C36 40 44 40 50 46" stroke="#B42318" stroke-width="6" fill="none" stroke-linecap="round"/><circle cx="40" cy="26" r="6" fill="#7FA6E8"/><path d="M14 40 L66 52" stroke="#B42318" stroke-width="5" stroke-linecap="round"/></g><text x="469" y="276" font-size="20" font-weight="800" fill="#7A271A" text-anchor="middle">Can't swallow spit</text><rect x="28" y="320" width="286" height="178" rx="20" fill="#FFF1F0" stroke="rgba(180,35,24,.25)" stroke-width="1.5"/><g transform="translate(131 336)"><path d="M8 40 C20 20 60 20 72 40" stroke="#1A1A2E" stroke-width="4" fill="none"/><path d="M14 62 C20 40 60 40 66 62 C60 70 20 70 14 62 Z" fill="#F4B3B0" stroke="#1A1A2E" stroke-width="3.5"/><path d="M14 76 C26 92 54 92 66 76" fill="url(#rfps)" stroke="#B42318" stroke-width="4"/><path d="M40 74 V50 M32 58 L40 48 L48 58" stroke="#B42318" stroke-width="4.5" fill="none" stroke-linecap="round" stroke-linejoin="round"/></g><text x="171" y="470" font-size="20" font-weight="800" fill="#7A271A" text-anchor="middle">Floor of mouth rising</text><rect x="326" y="320" width="286" height="178" rx="20" fill="#FFF1F0" stroke="rgba(180,35,24,.25)" stroke-width="1.5"/><g transform="translate(429 336)"><path d="M22 6 C22 30 18 50 10 90 M58 6 C58 30 62 50 70 90" stroke="#1A1A2E" stroke-width="4" fill="none" stroke-linecap="round"/><path d="M58 30 C76 34 78 64 62 70" fill="rgba(180,35,24,.16)" stroke="#B42318" stroke-width="4"/><path d="M22 30 C4 34 2 64 18 70" fill="rgba(180,35,24,.16)" stroke="#B42318" stroke-width="4"/></g><text x="469" y="470" font-size="20" font-weight="800" fill="#7A271A" text-anchor="middle">Neck hard or swelling</text><rect x="28" y="514" width="286" height="178" rx="20" fill="#FFF1F0" stroke="rgba(180,35,24,.25)" stroke-width="1.5"/><g transform="translate(131 530)"><path d="M8 50 C24 30 56 30 72 50 C56 60 24 60 8 50 Z" fill="#fff" stroke="#1A1A2E" stroke-width="4"/><path d="M8 50 C24 46 56 46 72 50" stroke="#1A1A2E" stroke-width="4" fill="none"/><path d="M4 44 C20 10 60 10 76 44" fill="rgba(180,35,24,.16)" stroke="#B42318" stroke-width="4"/><path d="M14 66 C30 80 50 80 66 66" stroke="#B42318" stroke-width="4" fill="none" stroke-linecap="round"/></g><text x="171" y="664" font-size="20" font-weight="800" fill="#7A271A" text-anchor="middle">Eye swelling shut</text><rect x="326" y="514" width="286" height="178" rx="20" fill="#FFF1F0" stroke="rgba(180,35,24,.25)" stroke-width="1.5"/><g transform="translate(429 530)"><rect x="32" y="6" width="16" height="60" rx="8" fill="#fff" stroke="#1A1A2E" stroke-width="4"/><circle cx="40" cy="74" r="14" fill="#B42318" stroke="#1A1A2E" stroke-width="4"/><rect x="37" y="26" width="6" height="44" rx="3" fill="#B42318"/><path d="M58 20 h10 M58 34 h14 M58 48 h10" stroke="#1A1A2E" stroke-width="3.5" stroke-linecap="round"/></g><text x="469" y="664" font-size="20" font-weight="800" fill="#7A271A" text-anchor="middle">High fever, confused</text></svg>
